<?xml version="1.0" encoding="utf-8"?>
<!-- Generator: Adobe Illustrator 16.0.0, SVG Export Plug-In . SVG Version: 6.00 Build 0)  -->
<!DOCTYPE svg PUBLIC "-//W3C//DTD SVG 1.1//EN" "http://www.w3.org/Graphics/SVG/1.1/DTD/svg11.dtd">
<svg version="1.1" id="Layer_1" xmlns="http://www.w3.org/2000/svg" xmlns:xlink="http://www.w3.org/1999/xlink" x="0px" y="0px"
	 width="900px" height="100px" viewBox="0 0 900 100" enable-background="new 0 0 900 100" xml:space="preserve">
<polygon fill="#FF6666" points="-34.2,36.42 49.04,12.51 28.13,96.55 "/>
<rect x="50" y="-49" transform="matrix(0.4384 0.8988 -0.8988 0.4384 25.6632 -82.069)" fill="#6666FF" width="57" height="57"/>
<polygon fill="#FF6666" points="60.57,-4 77.78,-5.96 70.87,9.92 "/>
<polygon fill="#FF6666" points="98.17,69.85 94.81,52.86 111.21,58.44 "/>
<polygon fill="#6666FF" points="68.17,55.7 64.85,32.23 87.95,28.8 91.26,52.27 "/>
<polygon fill="#FF6666" points="206.68,69.77 208.84,52.59 222.64,63.05 "/>
<polygon fill="#FF6666" points="198.06,8.74 209.92,-3.88 214.91,12.71 "/>
<polygon fill="#FF6666" points="137.94,22.07 120.69,23.6 127.99,7.89 "/>
<rect x="0.5" y="9.5" transform="matrix(0.5093 0.8606 -0.8606 0.5093 37.0413 -3.967)" fill="#6666FF" width="43" height="42"/>
<polygon fill="#FF6666" points="-28.66,16.55 15.09,-11.49 17.49,40.42 "/>
<polygon fill="#FF6666" points="128.93,36.63 78.38,24.6 114.08,-13.16 "/>
<polygon fill="#FF6666" points="177.98,56 131.24,78.7 134.96,26.87 "/>
<polygon fill="#FF6666" points="78.06,89.74 40,54.36 89.67,39.09 "/>
<polygon fill="#6666FF" points="152.06,34.58 160,12.25 182.06,19.92 174.11,42.25 "/>
<rect x="117.75" y="36.31" transform="matrix(-0.519 0.8548 -0.8548 -0.519 227.2795 -41.2783)" fill="#6666FF" width="15" height="14"/>
<rect x="54.75" y="71.31" transform="matrix(-0.9914 0.1305 -0.1305 -0.9914 134.1987 147.8269)" fill="#6666FF" width="15" height="14"/>
<rect x="177.75" y="69.31" transform="matrix(-0.1699 0.9855 -0.9855 -0.1699 291.9324 -93.2834)" fill="#6666FF" width="15" height="14"/>
<g>
</g>
<g>
</g>
<g>
</g>
<g>
</g>
<g>
</g>
<g>
</g>
<g>
</g>
<g>
</g>
<g>
</g>
<g>
</g>
<g>
</g>
<g>
</g>
<g>
</g>
<g>
</g>
<g>
</g>
</svg>
